<?xml version="1.0" standalone="no"?>
<!DOCTYPE svg PUBLIC "-//W3C//DTD SVG 20010904//EN"
 "http://www.w3.org/TR/2001/REC-SVG-20010904/DTD/svg10.dtd">
<svg version="1.0" xmlns="http://www.w3.org/2000/svg"
 width="406.000000pt" height="406.000000pt" viewBox="0 0 406.000000 406.000000"
 preserveAspectRatio="xMidYMid meet">
<metadata>
Created by potrace 1.14, written by Peter Selinger 2001-2017
</metadata>
<g transform="translate(0.000000,406.000000) scale(0.100000,-0.100000)"
fill="#000000" stroke="none">
<path d="M380 2777 c-3 -3 -39 -7 -80 -11 -79 -6 -85 -7 -165 -26 -63 -14
-123 -48 -131 -74 -8 -26 32 -61 85 -76 47 -12 209 -25 200 -15 -4 3 -36 13
-70 21 -91 21 -159 44 -159 54 0 5 17 13 38 19 20 5 48 12 62 15 165 40 754
12 725 -35 -7 -10 -125 -47 -210 -65 l-60 -13 90 4 c114 4 148 10 193 32 42
21 50 44 28 78 -13 20 -88 54 -136 62 -168 26 -396 43 -410 30z"/>
<path d="M3415 2769 c-33 -5 -73 -10 -90 -12 -106 -14 -205 -63 -205 -101 0
-44 81 -74 220 -81 85 -5 74 3 -40 30 -41 10 -88 25 -105 33 l-30 16 57 17
c156 48 672 41 767 -11 22 -12 -34 -37 -147 -65 l-97 -25 91 5 c114 5 176 20
204 50 74 78 -113 144 -425 150 -77 1 -167 -2 -200 -6z"/>
<path d="M3569 2546 l-65 -91 -650 -3 c-518 -2 -652 -5 -662 -16 -14 -13 -95
-227 -88 -233 2 -2 35 32 74 74 l71 78 653 3 c494 2 656 6 665 15 11 11 77
256 71 262 -2 1 -33 -39 -69 -89z"/>
<path d="M445 2494 c19 -70 40 -131 47 -136 7 -5 300 -7 661 -6 l649 2 78 -81
78 -81 -23 67 c-44 128 -66 179 -78 184 -7 2 -302 4 -656 3 -622 -2 -644 -2
-661 17 -10 10 -40 50 -67 87 -26 38 -51 69 -55 70 -3 0 9 -57 27 -126z"/>
<path d="M1797 2104 l-42 -42 -205 0 c-182 -1 -206 -3 -217 -19 -9 -12 -13
-67 -12 -197 0 -102 4 -172 8 -161 9 22 30 92 62 208 l22 77 189 0 190 0 43
42 44 43 153 0 153 1 45 -43 45 -43 188 1 c103 1 189 0 190 -2 2 -2 20 -67 42
-144 21 -77 41 -143 44 -147 5 -6 7 251 2 332 -3 54 -4 55 -224 55 l-204 0
-46 42 -45 41 -191 -1 -192 -1 -42 -42z"/>
<path d="M1955 1911 c-222 -58 -317 -319 -182 -498 63 -82 191 -141 280 -130
195 25 324 198 285 381 -21 102 -83 180 -175 223 -55 25 -158 38 -208 24z
m184 -105 c41 -22 96 -89 109 -135 45 -147 -65 -299 -217 -301 -87 -1 -184 63
-216 142 -81 198 133 392 324 294z"/>
</g>
</svg>
